<?xml version="1.0" encoding="UTF-8" standalone="no"?>
<!-- Created with Inkscape (http://www.inkscape.org/) -->

<svg
   width="722mm"
   height="722mm"
   viewBox="0 0 722.00001 721.99999"
   version="1.1"
   id="svg4190"
   inkscape:export-filename="C:\Users\Elev\Downloads\metanolgreenbild3.png"
   inkscape:export-xdpi="96"
   inkscape:export-ydpi="96"
   inkscape:version="1.1.1 (3bf5ae0d25, 2021-09-20)"
   sodipodi:docname="meth.svg"
   xmlns:inkscape="http://www.inkscape.org/namespaces/inkscape"
   xmlns:sodipodi="http://sodipodi.sourceforge.net/DTD/sodipodi-0.dtd"
   xmlns="http://www.w3.org/2000/svg"
   xmlns:svg="http://www.w3.org/2000/svg">
  <sodipodi:namedview
     id="namedview4192"
     pagecolor="#ffffff"
     bordercolor="#111111"
     borderopacity="1"
     inkscape:pageshadow="0"
     inkscape:pageopacity="0"
     inkscape:pagecheckerboard="1"
     inkscape:document-units="mm"
     showgrid="false"
     fit-margin-top="0"
     fit-margin-left="0"
     fit-margin-right="0"
     fit-margin-bottom="0"
     inkscape:snap-global="false"
     inkscape:zoom="0.17416176"
     inkscape:cx="1645.0225"
     inkscape:cy="855.52651"
     inkscape:window-width="1920"
     inkscape:window-height="986"
     inkscape:window-x="-11"
     inkscape:window-y="-11"
     inkscape:window-maximized="1"
     inkscape:current-layer="layer1" />
  <defs
     id="defs4187" />
  <g
     inkscape:label="Lager 1"
     inkscape:groupmode="layer"
     id="layer1"
     transform="translate(219.53517,257.84377)">
    <g
       inkscape:label="Lager 1"
       id="layer1-2"
       transform="translate(46.503151,-175.119)">
      <rect
         style="fill:#0000ff;stroke-width:3.46501;stroke-opacity:0"
         id="rect46668"
         width="1020.89"
         height="897.83624"
         x="-378.45776"
         y="-160.20303" />
      <path
         style="fill:#64a900;fill-opacity:1;stroke-width:1.01877"
         d="m 289.08499,70.079018 c -13.78022,-2.17229 -20.67758,-4.52995 -23.06637,-7.88467 -1.16376,-1.63437 -1.83108,-3.25634 -1.48302,-3.60445 0.34815,-0.34817 3.03417,0.10611 5.96912,1.00929 2.93489,0.90318 10.03536,2.41113 15.77871,3.35093 13.51597,2.21171 54.906,1.64016 75.89802,-1.04809 15.50464,-1.98547 17.06516,-1.65464 17.06516,3.61772 0,5.97921 -0.55895,6.05599 -43.26991,5.94487 -25.70581,-0.0668 -41.48386,-0.5331 -46.89171,-1.3856 z m 3.05634,-10.83112 c -9.19859,-0.83829 -28.01633,-5.60892 -28.01633,-7.10261 0,-1.10938 5.2746,-2.73585 14.75423,-4.54961 4.4298,-0.84757 11.17123,-3.04478 14.98084,-4.8827 l 6.92664,-3.34175 3.11143,3.8718 c 3.21898,4.00558 6.70566,5.0414 7.75602,2.30418 0.387,-1.00873 -0.74621,-2.73395 -3.17885,-4.83918 l -3.78038,-3.2716 3.31674,-2.44832 c 3.24503,-2.3954 3.35269,-2.40642 4.981,-0.50939 3.76115,4.38192 6.89717,6.56227 8.53478,5.93382 2.47862,-0.95112 2.06703,-4.41003 -0.6476,-5.44213 -3.05351,-1.16095 -5.38699,-3.99513 -4.19378,-5.09366 1.90078,-1.74997 12.59009,-7.21256 14.11367,-7.21256 1.15727,0 1.58321,1.05388 1.58321,3.9172 0,4.46199 1.64631,6.37848 7.62513,8.87659 6.49042,2.71188 15.95277,0.0928 25.21513,-6.97918 4.58367,-3.49972 7.03216,-3.03731 8.72642,1.64802 1.68908,4.6711 1.55213,7.81898 -0.34012,7.81898 -2.26835,0 -10.85939,4.53322 -14.67389,7.7429 -1.80528,1.51903 -4.62544,5.14181 -6.26706,8.05056 l -2.98477,5.2887 -12.37606,0.66544 c -15.36482,0.82617 -33.13588,0.6509 -45.1664,-0.44526 z m 63.67349,-2.23748 c 0,-3.98497 17.30774,-16.4272 19.62608,-14.10887 0.48913,0.48914 0.50974,3.55761 0.0474,6.87799 l -0.83695,5.99484 -5.59729,0.67927 c -3.07845,0.37374 -7.31642,0.95202 -9.41762,1.2855 -2.77946,0.441 -3.8204,0.24253 -3.8204,-0.72873 z"
         id="path7512" />
      <path
         style="fill:#64a900;fill-opacity:1;stroke-width:0.835538"
         d="M 79.995289,12.64036 V 8.0449 H 68.715534 57.43578 v 3.4515 3.45145 l -2.881692,-0.46753 c -1.584931,-0.25721 -4.216873,-1.10119 -5.848762,-1.87558 l -2.967069,-1.40799 0.0031,-11.81119 c 0.0027,-10.26331 0.218087,-12.16376 1.643431,-14.50142 2.062032,-3.38191 7.103823,-7.06533 13.036833,-9.52444 3.462327,-1.43505 4.454141,-2.21896 4.046701,-3.1985 -3.894494,-9.363112 -4.950212,-19.878614 -2.437076,-24.274888 1.54363,-2.700273 1.538594,-3.342124 -0.02605,-3.342124 -2.089842,0 -2.506213,-2.571571 -0.659913,-4.075728 0.914952,-0.745398 2.35275,-3.235211 3.195103,-5.532942 1.49033,-4.065259 6.013194,-9.608716 7.839668,-9.608716 0.498883,0 1.333104,1.691974 1.853817,3.759917 0.89043,3.536242 1.80782,4.590013 2.716278,3.120106 0.21752,-0.351954 -0.131066,-2.669674 -0.774606,-5.150532 -1.542982,-5.948321 -0.846855,-6.7427 5.908773,-6.7427 6.665434,0 7.442221,0.832937 5.815975,6.236561 -1.538078,5.110647 -1.533761,6.296483 0.02273,6.296483 0.805715,0 1.432606,-1.182994 1.780824,-3.360644 0.295585,-1.848388 0.856226,-3.557747 1.245912,-3.798571 2.233333,-1.380287 8.575035,6.444038 9.584573,11.825302 0.31547,1.681604 1.10717,2.857019 2.09902,3.116412 2.10102,0.549433 2.0461,3.117357 -0.0785,3.672948 -1.9948,0.521628 -1.95855,0.185687 -0.41775,3.873131 1.86845,4.471827 1.54211,12.523904 -0.78405,19.346225 -1.09681,3.21684 -1.933086,5.88698 -1.858377,5.93369 0.07467,0.0474 2.203767,1.03302 4.731267,2.19186 6.61832,3.03441 11.64694,7.00678 13.01511,10.28126 0.82788,1.9814 1.18902,6.25101 1.18902,14.05714 v 11.21136 l -2.96709,1.40799 c -1.63189,0.77439 -4.26384,1.61842 -5.84877,1.87558 l -2.88169,0.46753 V 11.4964 8.0449 H 95.452757 84.173002 v 4.59546 c 0,4.34484 -0.113918,4.59547 -2.088843,4.59547 -1.974904,0 -2.088841,-0.25059 -2.088841,-4.59547 z m 0,-13.28659 c 0,-2.50127 -1.230311,-6.57762 -3.845761,-12.74194 -2.11517,-4.98521 -4.160698,-9.39877 -4.545618,-9.80795 -1.201631,-1.2773 -9.957581,2.78445 -10.376745,4.8136 -0.8941,4.32825 -2.955848,18.02586 -2.955848,19.63778 0,1.72045 0.342241,1.77644 10.86199,1.77644 h 10.861982 z m 25.901651,2.57181 c 0,-1.353 -2.36935,-17.86215 -2.90547,-20.24472 -0.4439,-1.97268 -9.27773,-6.07551 -10.4752,-4.86513 -0.398375,0.40264 -2.438568,4.75012 -4.533791,9.66105 -2.661399,6.23794 -3.809504,10.0781 -3.809504,12.74194 V 3.0317 h 10.861988 c 8.455787,0 10.861977,-0.2449 10.861977,-1.10612 z M 89.588403,-24.6647 c 0.283077,-0.28327 0.291178,-1.40501 0.018,-2.49322 -0.473074,-1.88482 -0.829513,-1.97856 -7.52156,-1.97856 -6.505648,0 -7.089263,0.14116 -7.894621,1.90864 -0.738731,1.62135 -0.587367,2.02863 1.00548,2.70539 1.986842,0.84421 13.520167,0.73019 14.39262,-0.14211 z m -1.295772,-10.29055 c 3.416678,-1.76681 6.588013,-5.877548 7.247844,-9.394793 0.618451,-3.296604 -0.119561,-4.220441 -7.277401,-9.109921 l -3.011971,-2.057477 -2.692292,2.514966 c -2.276082,2.126209 -5.359812,3.424594 -13.216622,5.564963 -3.062675,0.834311 0.50456,8.389154 5.574437,11.805742 3.333512,2.24643 9.715884,2.56925 13.376005,0.67652 z"
         id="path4969" />
      <path
         style="fill:#64a900;fill-opacity:1;stroke-width:0.835538"
         d="m 360.80916,341.60333 c -0.31026,-0.31026 -0.56401,-26.4448 -0.56401,-58.07686 v -57.51279 h 46.79583 46.79584 l -0.21459,57.86096 -0.21458,57.86096 -46.01718,0.216 c -25.30948,0.11881 -46.27103,-0.0378 -46.58125,-0.34816 z m 57.83112,-22.45297 c 5.588,-2.50775 10.51266,-7.23363 13.59996,-13.05093 1.62101,-3.05436 1.93037,-4.90037 1.93932,-11.57169 0.0136,-9.27619 -1.75615,-13.92749 -7.46536,-19.63329 -5.60546,-5.60201 -10.43952,-7.48563 -19.26116,-7.5051 -6.54526,-0.0136 -8.13074,0.28327 -12.23353,2.29826 -5.52379,2.71264 -11.00529,8.32937 -13.49848,13.83138 -2.68431,5.92388 -2.508,15.73528 0.39505,21.99435 6.60075,14.23032 22.21288,20.05946 36.52397,13.63702 z m -18.80286,-4.19883 c -4.5588,-1.68444 -9.97307,-6.41656 -12.23783,-10.69603 -1.40711,-2.65878 -1.83627,-4.91411 -1.85113,-9.72776 -0.019,-5.49036 0.30173,-6.83297 2.57455,-10.83975 11.12319,-19.61082 40.33901,-11.90696 40.41787,10.65771 0.0285,8.63514 -3.627,14.97318 -10.935,18.95071 -5.25886,2.86222 -12.81716,3.55845 -17.96846,1.65512 z m -2.31303,-20.48427 2.80171,-1.73154 3.41927,1.92178 3.41934,1.92175 3.32682,-1.91465 3.32687,-1.91471 2.92274,1.72447 c 3.44576,2.03303 4.77649,2.14941 6.11642,0.53495 1.70604,-2.05573 -0.48497,-7.92362 -4.43262,-11.87126 -5.99797,-5.99801 -13.88089,-6.73613 -20.52661,-1.92197 -6.61614,4.79272 -9.14863,14.44804 -3.9125,14.91678 0.40549,0.0378 1.99764,-0.71324 3.53856,-1.6656 z M 445.46998,242.716 v -8.36382 l -38.22583,0.21744 -38.22584,0.21742 -0.2449,7.0322 c -0.13449,3.86774 -0.0526,7.5337 0.18286,8.14649 0.34767,0.90614 7.53523,1.11428 38.47076,1.11428 h 38.04319 z m -67.67855,0.0102 v -4.17771 h 8.35538 8.35539 v 4.17771 4.17767 h -8.35539 -8.35538 z m 29.93806,3.13323 c -2.00059,-1.61187 -2.36045,-3.60388 -1.00159,-5.54393 1.6988,-2.42534 4.95392,-2.26783 6.65073,0.32162 1.26787,1.93504 1.26787,2.2427 0,4.17772 -1.49455,2.28097 -3.6255,2.67493 -5.64914,1.04441 z m 12.31628,-0.26859 c -2.47919,-2.4792 -0.91326,-7.0424 2.41668,-7.0424 4.08586,0 6.01193,4.33526 3.09775,6.97258 -1.91897,1.73664 -3.8235,1.76075 -5.51443,0.0697 z m 12.50387,-0.32447 c -2.06236,-2.27884 -1.11567,-5.68305 1.78264,-6.41051 2.81803,-0.70727 4.80194,0.54015 5.12542,3.22281 0.50311,4.17207 -4.09642,6.29454 -6.90806,3.1877 z"
         id="path5099" />
      <path
         style="fill:#64a900;fill-opacity:1;stroke-width:0.835538"
         d="m 275.74987,557.52166 v -4.5954 h 2.92438 2.92439 l 0.0136,-43.23909 c 0.0136,-46.48619 -0.061,-45.66689 4.433,-49.00726 2.18816,-1.62655 3.62007,-1.77056 20.05287,-2.01656 20.40843,-0.30552 23.97678,0.0569 27.11191,2.75115 l 2.28211,1.96138 0.41779,19.89583 0.4178,19.89587 3.75864,0.64062 c 4.12047,0.70229 6.91592,2.454 9.55831,5.98948 1.56388,2.09249 1.74844,3.70516 2.00228,17.49419 0.16245,8.83438 0.64238,15.62643 1.14672,16.23414 1.26993,1.53011 4.65857,1.2744 5.56538,-0.42016 0.80526,-1.50468 -1.74318,-48.60491 -2.88675,-53.35263 -1.45983,-6.06072 -4.91606,-10.55082 -10.16255,-13.2026 -2.18599,-1.10484 -2.71554,-1.87842 -2.71554,-3.96697 0,-2.50975 0.0977,-2.57862 2.99278,-2.10881 4.43602,0.71986 10.31518,3.82262 14.47124,7.63725 5.81702,5.33913 9.54491,15.12204 6.44433,16.91145 -0.98462,0.56825 -0.99086,3.23016 -0.0427,17.79671 1.64219,25.20791 1.55703,31.5719 -0.46707,34.89134 -2.32179,3.80798 -6.34157,6.04371 -10.86651,6.04371 -4.52491,0 -8.5447,-2.23573 -10.8665,-6.04371 -1.48758,-2.43986 -1.66061,-4.22832 -1.66341,-17.19108 -0.002,-8.36889 -0.36758,-15.1493 -0.86808,-16.08413 -1.23714,-2.31169 -4.82425,-2.13691 -5.41301,0.26386 -0.25342,1.03397 -0.3548,9.9638 -0.225,19.84403 l 0.23637,17.96405 3.13322,0.25911 3.13328,0.25912 v 4.54499 4.54501 h -33.42148 -33.4215 z m 51.61511,-75.825 -0.22973,-13.57749 h -17.96404 -17.96404 l -0.22975,13.57749 -0.22975,13.57749 h 18.42325 18.4232 z"
         id="path5229" />
      <path
         style="fill:#64a900;fill-opacity:1;stroke-width:0.835538"
         d="m 80.367481,635.63835 c -7.037148,-3.473 -6.959078,-13.28909 0.132446,-16.65425 3.679045,-1.74583 24.191023,-1.79203 28.327253,-0.0639 3.03638,1.26866 6.25174,5.59179 6.25174,8.40562 0,2.5727 -2.984,6.87718 -5.76408,8.31483 -3.52709,1.82395 -25.250436,1.82208 -28.947372,-0.002 z m 14.664797,-8.31237 v -4.59547 h -6.206851 c -6.795176,0 -8.832821,1.06012 -8.832821,4.59547 0,3.53529 2.037645,4.59546 8.832821,4.59546 h 6.206851 z m -43.030176,-0.58066 c -0.919093,-0.52119 -1.947309,-1.35574 -2.284931,-1.85459 -0.3376,-0.4988 -0.619615,-14.16064 -0.626656,-30.35962 -0.01227,-28.34764 0.04993,-29.51536 1.658282,-31.12374 1.034468,-1.0345 2.785121,-1.6711 4.595452,-1.6711 2.692285,0 2.92438,-0.19894 2.92438,-2.50662 0,-2.11668 -0.324952,-2.50657 -2.088844,-2.50657 -2.023311,0 -2.08884,-0.17813 -2.08884,-5.68168 0,-3.30498 0.419404,-6.10106 1.002646,-6.68431 0.721109,-0.7211 6.343549,-1.00266 20.023499,-1.00266 21.908017,0 20.750727,-0.4628 20.750727,8.30048 0,4.84899 -0.09033,5.06817 -2.088843,5.06817 -1.763915,0 -2.088847,0.38983 -2.088847,2.50657 0,2.30768 0.232109,2.50662 2.924381,2.50662 4.646529,0 6.266532,2.26803 6.266532,8.77313 v 5.431 H 80.081995 c -18.195228,0 -20.862531,0.16535 -21.306204,1.32166 -0.744681,1.94062 -0.594008,23.98521 0.172185,25.19143 0.482098,0.75894 6.018234,1.08801 21.084528,1.25329 l 20.430776,0.22404 0.25058,4.80431 0.25058,4.80436 H 90.854801 c -7.078738,0 -10.786059,0.35338 -12.365869,1.17874 -3.597556,1.87942 -6.631313,5.63815 -7.646999,9.47438 l -0.94018,3.55103 -8.114286,-0.0237 c -4.462856,-0.0136 -8.866268,-0.4519 -9.785357,-0.97301 z m 11.639239,-28.51375 c -0.232962,-0.60712 -0.315194,-4.83704 -0.182656,-9.39982 l 0.240919,-8.29589 18.590709,-0.22499 18.590707,-0.22499 v 9.62463 9.62467 H 82.472971 c -14.484587,0 -18.498328,-0.23543 -18.831651,-1.10389 z"
         id="path5359" />
      <path
         style="fill:#64a900;fill-opacity:1;stroke-width:0.835538"
         d="m -153.77886,549.0377 c -6.68161,-1.12506 -12.23245,-3.33809 -13.99585,-5.57988 -1.45039,-1.84389 -1.68166,-3.38403 -1.68166,-11.19913 v -9.06127 l 3.55103,-1.78984 c 4.38049,-2.20792 13.02402,-8.29238 15.16917,-10.67808 0.87544,-0.97357 2.30407,-1.77018 3.17476,-1.77018 4.60798,0 9.01992,-4.87754 9.01992,-9.97175 0,-3.13341 -3.59629,-7.32629 -7.13322,-8.3165 -5.76933,-1.61523 -11.62839,2.96108 -11.62839,9.08255 0,1.7906 0.27115,3.52682 0.60254,3.85821 0.98231,0.98229 3.95494,-2.273 3.95494,-4.33099 0,-4.14077 5.79148,-6.14927 8.64364,-2.99767 3.05534,3.37609 0.53926,8.49849 -4.17441,8.49849 -1.01379,0 -2.3401,0.48932 -2.94736,1.08741 -6.87627,6.77239 -18.86112,13.95023 -23.29504,13.95159 -7.81115,0.002 -6.94207,-8.96999 2.02322,-20.8878 3.43831,-4.57064 3.45922,-4.64264 3.87474,-13.33933 l 0.41779,-8.74383 2.76702,-1.86072 c 4.5354,-3.0498 11.05736,-4.0466 26.47679,-4.0466 12.35477,0 14.97349,0.24208 20.11321,1.85887 9.45106,2.97313 8.76606,-0.0754 8.51377,37.88969 l -0.21871,32.91102 -3.56967,1.96894 c -1.96331,1.08292 -6.47521,2.48697 -10.02645,3.12021 -6.95268,1.2397 -23.19931,1.42974 -29.63175,0.34673 z m -16.66102,-34.72133 c 1.67619,-1.17407 1.86644,-1.92157 1.64811,-6.47544 -0.13575,-2.83147 -0.62283,-5.13902 -1.08236,-5.12783 -1.21946,0.0286 -6.5727,10.92367 -5.90147,12.00971 0.81223,1.31419 3.13134,1.13757 5.33572,-0.40644 z m 54.4498,-7.84851 c 0.54756,-1.02313 0.79827,-6.6906 0.65605,-14.83079 l -0.23017,-13.17485 -4.59545,-1.63584 c -6.48491,-2.30842 -30.60102,-2.44926 -37.80807,-0.22072 -2.64239,0.817 -4.80435,1.82085 -4.80435,2.23074 0,1.22434 11.53597,3.50137 20.26179,3.99937 7.77902,0.44383 8.14649,0.55061 8.14649,2.36395 0,3.48465 0.88453,4.54229 3.79887,4.54229 2.61457,0 2.80038,0.19139 3.04387,3.13324 0.24225,2.92675 0.43836,3.13276 2.97483,3.12523 l 2.71549,-0.0107 v 4.44957 c 0,2.44726 0.38923,5.1768 0.86493,6.06571 1.12146,2.09544 3.84463,2.07372 4.97573,-0.0378 z"
         id="path5489" />
      <path
         style="fill:#64a900;fill-opacity:1;stroke-width:0.835538"
         d="m -243.05076,313.75887 c -7.11506,-4.33876 -6.71538,-14.80448 0.73891,-19.34965 9.20324,-5.61156 20.45566,4.44588 16.00832,14.30825 -2.77265,6.14865 -10.91297,8.59914 -16.74723,5.0414 z m 69.1573,-0.11694 c -4.55635,-2.7779 -6.42901,-9.34283 -3.9979,-14.01532 2.68079,-5.15236 8.15785,-7.83629 13.33822,-6.53611 3.43895,0.86311 7.11383,4.57292 8.07844,8.1552 1.18951,4.41755 -0.0846,8.21572 -3.87108,11.54038 -3.59687,3.15809 -9.19185,3.51156 -13.54768,0.85585 z m -85.11912,-10.78227 c -4.54541,-2.0779 -6.17436,-5.33148 -6.73033,-13.44292 -0.85729,-12.50755 -0.52436,-13.28303 10.5153,-24.49392 5.3554,-5.43848 10.7524,-10.42039 11.99334,-11.0709 2.91237,-1.5267 49.81318,-1.74568 52.73528,-0.24633 1.00376,0.51504 6.55723,5.59098 12.34104,11.27976 l 10.51603,10.34327 8.28357,0.019 c 9.01291,0.019 13.34638,1.33444 16.79217,5.09355 2.81049,3.06606 3.60668,6.08631 3.60668,13.68145 0,6.55299 -0.13676,7.0946 -2.20152,8.71876 -1.52489,1.19947 -3.4204,1.73171 -6.16732,1.73171 h -3.96583 l -0.94133,-3.73836 c -2.49924,-9.92543 -13.14155,-14.86754 -22.38247,-10.3941 -4.12339,1.99614 -6.72733,5.24731 -8.20033,10.23863 l -1.02583,3.47604 -18.10119,0.22548 c -16.69007,0.20746 -18.13923,0.10994 -18.58905,-1.2533 -3.0876,-9.35746 -7.57948,-13.64569 -14.93253,-14.25548 -8.0463,-0.66724 -14.33198,3.7769 -16.7003,11.80749 -1.20808,4.0964 -2.17175,4.4175 -6.84538,2.28097 z m 38.17043,-35.98633 v -8.35538 h -9.73751 -9.73752 l -8.43543,8.34492 -8.43541,8.34492 18.17293,0.0107 18.17294,0.0107 z m 36.34588,0 -8.32403,-8.35538 h -11.08654 -11.08655 v 8.35538 8.35538 h 19.41057 19.41057 z"
         id="path5619" />
      <path
         style="fill:#64a900;fill-opacity:1;stroke-width:0.940474"
         d="m -173.44762,96.247564 -2.95242,-2.69937 V 46.986734 0.42524145 l 2.29426,-2.61056505 2.29427,-2.610561 h 26.62334 26.62335 l 2.45316,2.255653 2.45316,2.25565205 V 46.631804 93.548194 l -2.95242,2.69937 -2.95243,2.69937 h -25.46593 -25.46592 z m 32.03074,-2.13885 c 0.6274,-0.6141 1.14075,-1.99576 1.14075,-3.07042 0,-2.63315 -1.76389,-4.1869 -4.75315,-4.1869 -3.0381,0 -4.75314,1.56119 -4.75314,4.32678 0,3.43118 5.78385,5.45739 8.36554,2.93054 z m 21.82798,-47.49842 -0.24869,-36.519313 h -25.19169 -25.19168 l -0.24868,36.519313 -0.24868,36.51936 h 25.68905 25.68907 z M -139.80081,2.1823294 c -0.32316,-0.511733 -2.7012,-0.930427 -5.28457,-0.930427 -2.58337,0 -4.69704,0.418694 -4.69704,0.930427 0,0.511738 2.37805,0.930432 5.28456,0.930432 3.28098,0 5.06182,-0.352758 4.69705,-0.930432 z"
         id="path7088" />
      <path
         style="fill:none;stroke:#ffffff;stroke-width:2.67635;stroke-linecap:butt;stroke-linejoin:miter;stroke-miterlimit:4;stroke-dasharray:none;stroke-opacity:1"
         d="m 69.535332,334.63051 c 0,0 -17.703723,-40.97301 -94.773222,-20.59251 -30.486262,8.06187 -92.86504,-18.04823 -92.86504,-18.04823"
         id="path13656"
         sodipodi:nodetypes="csc" />
      <path
         style="fill:none;stroke:#ffffff;stroke-width:2.67635;stroke-linecap:butt;stroke-linejoin:miter;stroke-miterlimit:4;stroke-dasharray:none;stroke-opacity:1"
         d="m 43.382113,357.86303 c 0,0 -21.062923,25.43586 -61.240829,21.7255 -20.26582,-1.87151 -57.563598,20.354 -57.563598,20.354"
         id="path13786"
         sodipodi:nodetypes="csc" />
      <path
         style="fill:none;stroke:#ffffff;stroke-width:2.67635;stroke-linecap:butt;stroke-linejoin:miter;stroke-miterlimit:4;stroke-dasharray:none;stroke-opacity:1"
         d="m 81.449901,372.02347 c 0,0 -26.532374,51.47302 -1.440346,86.8806 16.598094,23.42172 -5.891433,57.57393 -5.891433,57.57393"
         id="path13788"
         sodipodi:nodetypes="csc" />
      <path
         style="fill:none;stroke:#ffffff;stroke-width:2.67635;stroke-linecap:butt;stroke-linejoin:miter;stroke-miterlimit:4;stroke-dasharray:none;stroke-opacity:1"
         d="m 122.39291,363.44848 c 0,0 41.1344,0.94485 61.06195,31.0875 25.92464,39.2139 79.79545,53.76948 79.79545,53.76948"
         id="path13790"
         sodipodi:nodetypes="csc" />
      <path
         style="fill:none;stroke:#ffffff;stroke-width:2.67635;stroke-linecap:butt;stroke-linejoin:miter;stroke-miterlimit:4;stroke-dasharray:none;stroke-opacity:1"
         d="m 110.8611,321.64041 c 0,0 27.84843,-47.40909 121.44868,-20.64443 67.56029,19.31862 87.21754,5.97176 119.5995,-13.79459"
         id="path13792"
         sodipodi:nodetypes="csc" />
      <path
         style="fill:none;stroke:#ffffff;stroke-width:2.67635;stroke-linecap:butt;stroke-linejoin:miter;stroke-miterlimit:4;stroke-dasharray:none;stroke-opacity:1"
         d="m 124.15009,253.6147 c 0,0 -4.82103,-42.0728 53.58021,-52.12347 65.66856,-11.30136 105.5809,-94.2683 105.5809,-94.2683"
         id="path13794"
         sodipodi:nodetypes="csc" />
      <path
         style="fill:none;stroke:#ffffff;stroke-width:2.67635;stroke-linecap:butt;stroke-linejoin:miter;stroke-miterlimit:4;stroke-dasharray:none;stroke-opacity:1"
         d="m 89.028905,206.68884 c 0,0 -35.863834,-31.39856 -16.236895,-72.52268 13.078127,-27.40246 6.252804,-81.491822 6.252804,-81.491822"
         id="path13796"
         sodipodi:nodetypes="csc" />
      <path
         style="fill:none;stroke:#ffffff;stroke-width:2.67635;stroke-linecap:butt;stroke-linejoin:miter;stroke-miterlimit:4;stroke-dasharray:none;stroke-opacity:1"
         d="m 38.432754,246.33356 c 0,0 -29.8612552,-13.35972 -50.545428,-66.65074 -17.545984,-45.20574 -75.36487,-70.44217 -75.36487,-70.44217"
         id="path13798"
         sodipodi:nodetypes="csc" />
      <path
         style="fill:#64a900;fill-opacity:1;stroke-width:1.63467"
         d="m 46.617646,373.68256 c 0.574602,-0.57458 -0.774269,-3.20534 -2.996905,-5.84677 -6.490352,-7.71343 -5.355817,-12.15301 9.412162,-36.83167 11.650305,-19.46867 13.577883,-23.7694 14.383775,-32.09233 0.692406,-7.15035 0.329877,-10.21126 -1.415077,-11.95637 -3.434241,-3.43431 -0.224955,-5.72499 7.155707,-5.10762 6.935441,0.57989 9.571092,4.058 3.705279,4.88948 -3.429989,0.48642 -3.850754,1.57264 -4.638023,11.97735 -0.78202,10.33565 -1.770474,12.92579 -10.21668,26.77227 -5.142923,8.43122 -9.350829,15.49452 -9.350829,15.69612 0,0.20132 6.068676,0.37328 13.485991,0.38085 10.203081,0.0107 16.620772,1.06476 26.363405,4.32863 12.926289,4.33039 30.441339,5.87027 30.441339,2.67631 0,-0.90077 -5.51702,-10.90213 -12.26002,-22.22528 -11.547698,-19.39142 -12.260025,-21.14828 -12.260025,-30.23835 0,-7.48877 -0.54952,-9.65079 -2.452012,-9.65079 -1.348569,0 -2.451945,-1.10342 -2.451945,-2.45205 0,-1.76474 1.805514,-2.45203 6.442169,-2.45203 7.030213,0 10.306063,2.81723 6.047313,5.20056 -1.91686,1.07268 -2.68148,3.78583 -2.68148,9.51445 0,7.11493 1.54686,10.63577 13.7891,31.38617 7.58399,12.85478 14.57219,24.26082 15.52933,25.34669 0.95713,1.0859 1.7403,2.69887 1.7403,3.58452 0,2.573 -6.7151,13.23979 -8.33486,13.23979 -0.81022,0 -1.47321,1.10336 -1.47321,2.45202 0,2.11189 -5.47918,2.45201 -39.504488,2.45201 -21.727439,0 -39.034618,-0.46991 -38.460316,-1.04425 z M 95.15844,360.01474 c 0,-0.89906 -0.735731,-1.63467 -1.634652,-1.63467 -0.89907,0 -1.634729,0.73574 -1.634729,1.63467 0,0.89906 0.735735,1.63466 1.634729,1.63466 0.899073,0 1.634652,-0.73573 1.634652,-1.63466 z m -21.980005,-11.5851 c 1.684514,-2.72571 -2.104138,-5.85136 -4.359227,-3.59627 -1.886237,1.88624 -0.705334,5.37336 1.819194,5.37336 0.792967,0 1.935939,-0.79973 2.540033,-1.77709 z m 31.788015,-6.39625 c 0,-0.89907 0.69241,-1.63464 1.53819,-1.63464 0.84603,0 1.9928,0.73573 2.54848,1.63464 0.5556,0.89908 -0.1368,1.63467 -1.5382,1.63467 -1.40163,0 -2.54847,-0.73574 -2.54847,-1.63467 z m -21.532108,-6.86652 c -2.360587,-1.83446 -2.511991,-3.46197 -1.10999,-11.93218 0.892839,-5.39442 1.38733,-20.23036 1.098739,-32.96875 -0.486437,-21.45643 -0.813639,-23.55128 -4.451503,-28.46837 -2.944157,-3.97942 -3.250989,-5.0484 -1.226048,-4.27133 2.32547,0.89229 2.700864,-0.32019 2.700864,-8.72034 0,-5.41467 0.727372,-9.7567 1.634655,-9.7567 0.89907,0 1.634655,3.9897 1.634655,8.86596 0,4.87631 0.86403,12.60899 1.919975,17.1837 1.689917,7.32094 2.32646,8.19134 5.312647,7.26348 3.261478,-1.01347 3.282078,-0.93015 0.53204,2.15241 -2.441987,2.73735 -2.888977,6.89607 -3.054061,28.4153 -0.106406,13.86473 -0.658208,27.26796 -1.225969,29.78482 -0.900897,3.9925 -1.381329,4.30528 -3.766004,2.452 z m 15.402092,-61.23751 c -3.894303,-1.57143 -2.009129,-5.17015 5.132126,-9.79735 13.73347,-8.89876 13.77694,-8.93541 9.17123,-7.74592 -2.24764,0.58068 -7.30103,3.20432 -11.22969,5.83069 -3.928651,2.62647 -7.477053,4.44133 -7.885204,4.0332 -1.740609,-1.74067 4.878275,-11.01592 9.605374,-13.46049 4.88153,-2.52429 24.93989,-3.75879 27.03483,-1.66384 1.68833,1.68824 -9.68464,17.28653 -14.9982,20.57058 -5.05742,3.12565 -12.25257,4.08028 -16.830466,2.23313 z m -44.67013,-8.79934 c -7.341697,-1.96353 -24.407024,-13.25547 -24.388477,-16.13767 0.01517,-2.60034 16.375877,-7.49114 25.05664,-7.49114 8.74795,0 9.935994,0.45095 14.419722,5.46876 5.689405,6.36749 5.226757,7.99939 -1.324553,4.6721 -6.120053,-3.10826 -20.930062,-5.32641 -19.437388,-2.9112 0.598926,0.96854 2.385137,1.76108 3.970081,1.76108 4.262326,0 18.008178,4.94447 19.226623,6.91598 1.235779,1.99955 -5.226151,7.27565 -10.037382,8.19535 -1.833183,0.35054 -5.201601,0.1374 -7.485266,-0.47368 z M 86.13763,232.34629 c 1.53456,-5.17688 8.21713,-19.21416 11.594668,-24.35574 1.47656,-2.24771 -0.236366,-0.97955 -3.806973,2.81808 -3.858806,4.10443 -7.331582,9.90529 -8.56295,14.30332 -2.283591,8.1561 -4.018345,9.3253 -5.520294,3.72055 -1.824741,-6.80873 -1.038311,-13.4529 2.225981,-18.80674 3.656023,-5.99626 19.354698,-16.74724 24.454518,-16.74724 3.04958,0 3.34791,1.00181 3.34791,11.24305 0,18.07219 -6.52084,28.76518 -18.752051,30.75009 -5.8836,0.95478 -6.094289,0.83104 -4.980809,-2.92537 z"
         id="path6025" />
      <path
         style="fill:#ffffff;stroke-width:0.0221784"
         d="m 75.411585,57.077049 c -0.05549,-0.0156 -0.138769,-0.0518 -0.185056,-0.0804 -0.04629,-0.0286 -0.338163,-0.3225 -0.648616,-0.6531 -0.664567,-0.70769 -0.684454,-0.73812 -0.684454,-1.04725 0,-0.3518 -0.130373,-0.19407 2.280577,-2.75907 1.168929,-1.24362 2.174741,-2.30556 2.235137,-2.35986 0.06315,-0.0568 0.157438,-0.11455 0.221896,-0.13596 0.152771,-0.0507 0.373241,-0.0369 0.515621,0.0324 0.106074,0.0516 0.298279,0.25359 4.385883,4.60896 0.213278,0.22725 0.270295,0.35602 0.27288,0.61627 0.0029,0.29328 -0.03926,0.3569 -0.708261,1.06848 -0.487063,0.51805 -0.584975,0.61167 -0.693696,0.66327 -0.169908,0.0806 -0.38443,0.0844 -0.554255,0.01 -0.138472,-0.0608 -0.190238,-0.11363 -1.845623,-1.88218 -0.628204,-0.67115 -1.149031,-1.21858 -1.157393,-1.21651 -0.0084,0.002 -0.65209,0.68215 -1.430509,1.51129 -1.216557,1.29582 -1.432435,1.51615 -1.537287,1.56896 -0.145628,0.0733 -0.326178,0.0946 -0.466844,0.055 z"
         id="path21134" />
      <path
         style="fill:#ffffff;stroke-width:0.0221784"
         d="m 278.65412,108.39681 c -0.0408,-0.0407 -0.0958,-0.11295 -0.12229,-0.1605 -0.0265,-0.0476 -0.13786,-0.4465 -0.24757,-0.88654 -0.23486,-0.94198 -0.23738,-0.97824 -0.0866,-1.24809 0.17163,-0.30709 -0.0191,-0.23301 3.33681,-1.29584 1.62709,-0.51531 3.02317,-0.9516 3.10238,-0.96954 0.0828,-0.0187 0.19331,-0.0232 0.26002,-0.0104 0.15812,0.0302 0.34382,0.14988 0.43431,0.27981 0.0674,0.0968 0.13666,0.36688 1.58,6.16296 0.0753,0.30242 0.0623,0.44264 -0.0624,0.67108 -0.14054,0.25743 -0.2084,0.29239 -1.13953,0.58716 -0.67791,0.2146 -0.80905,0.24856 -0.92913,0.24056 -0.18765,-0.0125 -0.37677,-0.11384 -0.48861,-0.26183 -0.0912,-0.12066 -0.11062,-0.192 -0.69284,-2.5434 -0.22094,-0.89234 -0.40851,-1.62429 -0.41682,-1.62656 -0.008,-0.002 -0.90202,0.27733 -1.98602,0.62134 -1.69414,0.53764 -1.99008,0.62465 -2.10737,0.61959 -0.1629,-0.007 -0.33088,-0.0765 -0.43433,-0.17978 z"
         id="path21172" />
      <path
         style="fill:#ffffff;stroke-width:0.0221784"
         d="m 346.48121,286.68977 c -0.0222,-0.0532 -0.0455,-0.14097 -0.0518,-0.19502 -0.006,-0.054 0.0429,-0.46532 0.10933,-0.91394 0.14222,-0.96033 0.15373,-0.99481 0.39608,-1.18673 0.27579,-0.2184 0.0712,-0.22269 3.57881,0.075 1.70063,0.14433 3.15757,0.27358 3.23763,0.28721 0.0837,0.0143 0.18754,0.0523 0.24434,0.0896 0.13462,0.0883 0.26065,0.26969 0.29474,0.42431 0.0254,0.1152 -0.0136,0.39127 -0.89042,6.29966 -0.0457,0.30828 -0.11129,0.43292 -0.31371,0.59651 -0.22812,0.18436 -0.30418,0.1908 -1.27734,0.10808 -0.70851,-0.0602 -0.84269,-0.0789 -0.95064,-0.13206 -0.1687,-0.0831 -0.30486,-0.24895 -0.35179,-0.42841 -0.0383,-0.14633 -0.029,-0.21968 0.32976,-2.61538 0.13616,-0.90914 0.24198,-1.6573 0.23517,-1.66257 -0.007,-0.005 -0.93961,-0.0877 -2.07287,-0.18323 -1.77113,-0.14926 -2.07787,-0.18172 -2.18436,-0.23114 -0.14791,-0.0686 -0.27666,-0.19698 -0.33291,-0.33186 z"
         id="path21210" />
      <path
         style="fill:#ffffff;stroke-width:0.0221784"
         d="m 261.37388,444.00141 c 0.0422,-0.0394 0.11565,-0.0926 0.16398,-0.1176 0.0482,-0.0251 0.45027,-0.12497 0.89329,-0.222 0.94833,-0.20772 0.98465,-0.20919 1.25005,-0.0507 0.30201,0.1804 0.23346,-0.0124 1.19948,3.37264 0.46837,1.64123 0.86439,3.04925 0.88004,3.12894 0.0164,0.0833 0.0176,0.1939 0.003,0.26022 -0.0347,0.15721 -0.15968,0.33937 -0.29214,0.42611 -0.0987,0.0646 -0.37065,0.12607 -6.2058,1.40234 -0.30446,0.0666 -0.44424,0.0495 -0.66901,-0.0817 -0.25327,-0.14788 -0.28629,-0.21671 -0.55419,-1.15592 -0.19505,-0.68378 -0.22523,-0.81585 -0.21378,-0.93564 0.0179,-0.18723 0.12461,-0.37335 0.27575,-0.4809 0.12324,-0.0877 0.19509,-0.10508 2.56226,-0.61951 0.89831,-0.19523 1.63534,-0.3617 1.63786,-0.36994 0.002,-0.009 -0.25132,-0.90961 -0.56405,-2.00305 -0.48877,-1.70888 -0.56724,-2.00719 -0.55881,-2.12428 0.0117,-0.16264 0.086,-0.32855 0.19217,-0.42899 z"
         id="path20890" />
      <path
         style="fill:#ffffff;stroke-width:0.0221784"
         d="m 77.79244,511.58279 c 0.05603,0.0136 0.140589,0.0467 0.187899,0.0736 0.04731,0.0269 0.349837,0.3098 0.672281,0.62871 0.690235,0.68268 0.711232,0.71235 0.722643,1.02127 0.01299,0.35156 0.137448,0.18913 -2.177182,2.84137 -1.12223,1.28593 -2.088159,2.38426 -2.14651,2.44076 -0.06101,0.0591 -0.153102,0.12028 -0.216726,0.14405 -0.150794,0.0564 -0.371624,0.0507 -0.516464,-0.0133 -0.107907,-0.0476 -0.307436,-0.2424 -4.553016,-4.44393 -0.221522,-0.21922 -0.283252,-0.3458 -0.295441,-0.60577 -0.01374,-0.29298 0.02606,-0.35811 0.668339,-1.09389 0.46761,-0.53569 0.562,-0.63285 0.668742,-0.68843 0.166815,-0.0869 0.38105,-0.0986 0.553514,-0.0303 0.140624,0.0557 0.194302,0.10654 1.913839,1.81278 0.652549,0.6475 1.193227,1.17533 1.201506,1.17296 0.0083,-0.002 0.626468,-0.70576 1.373751,-1.56306 1.167898,-1.33985 1.375497,-1.56799 1.478328,-1.62463 0.142822,-0.0787 0.322465,-0.10658 0.464497,-0.0722 z"
         id="path20964" />
      <path
         style="fill:#ffffff;stroke-width:0.0221784"
         d="m -76.380194,455.73635 c 0.01296,0.0562 0.02123,0.14661 0.01839,0.20094 -0.0028,0.0543 -0.120295,0.45155 -0.261007,0.88268 -0.301215,0.9229 -0.318341,0.95496 -0.589433,1.10353 -0.308504,0.16907 -0.107529,0.2076 -3.515581,-0.67394 -1.652367,-0.4274 -3.067013,-0.79908 -3.143658,-0.82595 -0.08014,-0.0281 -0.176116,-0.083 -0.225869,-0.12925 -0.117919,-0.10958 -0.211741,-0.30957 -0.219425,-0.46772 -0.0057,-0.11782 0.07903,-0.38345 1.93396,-6.06121 0.09678,-0.29625 0.182302,-0.40813 0.409284,-0.53548 0.255791,-0.1435 0.331854,-0.13709 1.277379,0.1076 0.688386,0.17815 0.817541,0.21902 0.915041,0.28957 0.152374,0.11024 0.258806,0.29654 0.274987,0.48132 0.01319,0.15068 -0.0082,0.22144 -0.763568,2.52308 -0.286647,0.87345 -0.516403,1.59328 -0.510569,1.59961 0.0058,0.006 0.911598,0.24401 2.012808,0.52816 1.721036,0.44408 2.017999,0.52751 2.114698,0.59408 0.134306,0.0925 0.239717,0.24057 0.27256,0.38298 z"
         id="path21020" />
      <path
         style="fill:#ffffff;stroke-width:0.0221784"
         d="m -100.65559,306.53282 c -0.033,0.0473 -0.0946,0.11402 -0.1368,0.14833 -0.0422,0.0343 -0.41573,0.21337 -0.83001,0.39791 -0.8868,0.39503 -0.92207,0.40382 -1.21403,0.30221 -0.33225,-0.11563 -0.22614,0.0593 -1.85617,-3.06074 -0.79032,-1.51275 -1.46265,-2.81172 -1.49408,-2.88661 -0.0329,-0.0783 -0.0564,-0.18634 -0.0555,-0.25425 0.002,-0.16097 0.0878,-0.36464 0.20004,-0.47634 0.0836,-0.0832 0.33754,-0.19835 5.79447,-2.62728 0.28473,-0.12674 0.42508,-0.13826 0.67172,-0.0552 0.27794,0.0936 0.32417,0.15439 0.77631,1.0201 0.32918,0.63028 0.38542,0.75353 0.39841,0.87317 0.0203,0.18697 -0.0466,0.39082 -0.1729,0.52668 -0.10297,0.11078 -0.16985,0.14232 -2.38424,1.12443 -0.84034,0.3727 -1.52854,0.68466 -1.52933,0.69323 -8e-4,0.009 0.42991,0.84008 0.95712,1.84777 0.82396,1.57489 0.96109,1.85119 0.9765,1.96758 0.0214,0.16164 -0.0179,0.33914 -0.10154,0.45897 z"
         id="path21058" />
      <path
         style="fill:#ffffff;stroke-width:0.0221784"
         d="m -85.691307,113.71689 c -0.03959,0.042 -0.110241,0.099 -0.157032,0.12672 -0.04681,0.0278 -0.44248,0.15023 -0.879301,0.27217 -0.935063,0.26099 -0.971243,0.26452 -1.245186,0.12128 -0.311745,-0.16303 -0.232388,0.0256 -1.38827,-3.29943 -0.56042,-1.61212 -1.035418,-2.9955 -1.055554,-3.07418 -0.02104,-0.0823 -0.02856,-0.19259 -0.01766,-0.25963 0.02582,-0.1589 0.140202,-0.34788 0.267595,-0.44194 0.09488,-0.0701 0.362928,-0.14682 6.116573,-1.75101 0.300206,-0.0837 0.440731,-0.0746 0.672557,0.0437 0.261246,0.13332 0.298102,0.20013 0.618669,1.12273 0.233397,0.67167 0.270989,0.80182 0.266339,0.92207 -0.0073,0.18793 -0.103298,0.3798 -0.248118,0.49571 -0.118079,0.0945 -0.188848,0.11593 -2.523127,0.76341 -0.885838,0.24571 -1.612283,0.45359 -1.61432,0.46195 -0.0019,0.008 0.302342,0.89395 0.676407,1.96795 0.584613,1.67851 0.679829,1.97191 0.678041,2.08929 -0.0025,0.16303 -0.06731,0.33289 -0.167612,0.43917 z"
         id="path21096" />
    </g>
  </g>
</svg>
